
<svg
  className="svg-icon"
  style="width: 1em; height: 1em;vertical-align: middle;fill: currentColor;overflow: hidden;"
  viewBox="0 0 1024 1024"
  version="1.1"
  xmlns="http://www.w3.org/2000/svg"
>

  <g fill="none" stroke="#e1ceb4" stroke-width="4">
    <path
      d="M49.434483 28.248276V14.124138a14.124138 14.124138 0 0 1 28.248276 0v14.124138h14.124138a14.124138 14.124138 0 0 1 0 28.248276H77.682759v14.124138a14.124138 14.124138 0 0 1-28.248276 0V56.496552H35.310345a14.124138 14.124138 0 0 1 0-28.248276zM960.441379 1024a42.372414 42.372414 0 1 1 42.372414-42.372414 42.372414 42.372414 0 0 1-42.372414 42.372414z m0-56.496552a14.124138 14.124138 0 1 0 14.124138 14.124138 14.124138 14.124138 0 0 0-14.124138-14.124138z"
      fill="#e1ceb4"
    />
    <path
      d="M476.477793 918.068966c-14.124138 0-26.200276-9.110069-36.581517-17.090207a55.366621 55.366621 0 0 0-16.172138-10.098759 305.434483 305.434483 0 0 1-39.476966-8.474483c-153.176276-44.279172-225.138759-168.783448-213.839448-370.123034 11.016828-196.043034 111.227586-353.456552 297.878069-467.862069l7.062069-4.378483 7.062069 4.237241c201.268966 117.72469 303.315862 275.42069 303.315862 468.780138 0 207.483586-63.982345 320.47669-207.483586 366.52138a299.784828 299.784828 0 0 1-39.194483 9.675034 70.62069 70.62069 0 0 0-20.762483 11.22869c-11.652414 8.262621-25.63531 17.584552-41.807448 17.584552z m-0.423724-845.047173C302.397793 181.848276 209.178483 330.151724 198.867862 513.906759c-10.522483 186.368 54.589793 301.197241 193.430069 341.309793a262.708966 262.708966 0 0 0 35.734069 7.697655 66.59531 66.59531 0 0 1 29.166345 15.677793c6.426483 5.014069 14.477241 11.22869 19.279448 11.22869 7.627034 0 17.302069-6.497103 26.694621-12.852966a87.852138 87.852138 0 0 1 31.567448-15.536552 255.929379 255.929379 0 0 0 35.310345-8.756965c129.942069-41.666207 187.851034-146.39669 187.851034-339.614897 0.211862-180.294621-94.631724-328.315586-281.847172-440.037517z"
      fill="#e1ceb4"
    />
    <path
      d="M472.452414 783.042207a337.213793 337.213793 0 0 1-82.273104-11.369931c-147.456-39.476966-222.949517-154.65931-212.709517-324.290207a14.152386 14.152386 0 0 1 28.248276 1.694897c-9.463172 157.060414 56.849655 259.177931 191.876414 295.335724a316.027586 316.027586 0 0 0 77.329655 10.381241 415.037793 415.037793 0 0 0 89.688276-12.570483c127.117241-37.993931 189.40469-134.17931 189.404689-293.993931a14.124138 14.124138 0 0 1 28.248276 0c0 171.608276-70.62069 279.58731-209.602207 321.041655a439.190069 439.190069 0 0 1-97.385931 13.771035z"
      fill="#e1ceb4"
    />
    <path
      d="M381.775448 703.947034c-46.327172 0-84.038621-35.87531-84.03862-80.013241a75.211034 75.211034 0 0 1 4.307862-25.282207 89.405793 89.405793 0 0 1-39.335724-73.516138 87.852138 87.852138 0 0 1 19.350068-54.942896 87.569655 87.569655 0 0 1-19.350068-54.872276 89.12331 89.12331 0 0 1 30.437517-66.52469 77.682759 77.682759 0 0 1-7.062069-32.344276 79.518897 79.518897 0 0 1 46.609655-71.609379 66.665931 66.665931 0 0 1 133.12 0 61.298759 61.298759 0 0 1-17.231448 42.372414A76.976552 76.976552 0 0 1 437.848276 364.190897a87.428414 87.428414 0 0 1-2.824828 105.931034 87.499034 87.499034 0 0 1 19.350069 54.942897 86.157241 86.157241 0 0 1-11.652414 43.502344 78.388966 78.388966 0 0 1 23.304828 55.296c0.070621 44.208552-37.92331 80.083862-84.250483 80.083862z m17.513931-494.344827a36.934621 36.934621 0 0 0-38.347034 35.310345 35.663448 35.663448 0 0 0 0.564965 6.21462l2.401104 12.358621-11.934897 3.813517a52.25931 52.25931 0 0 0-37.640827 48.940138 49.434483 49.434483 0 0 0 8.756965 28.248276l8.262621 11.793655-12.005517 7.980138a61.651862 61.651862 0 0 0-28.248276 51.12938A60.239448 60.239448 0 0 0 310.731034 459.81131l11.22869 10.381242L310.731034 480.573793a60.310069 60.310069 0 0 0-19.985655 44.561655 62.42869 62.42869 0 0 0 35.310345 55.22538l13.206069 6.638344-7.062069 12.923587a47.880828 47.880828 0 0 0-6.355862 24.011034c0 28.248276 24.999724 51.764966 55.790345 51.764966s55.790345-23.234207 55.790345-51.764966a50.21131 50.21131 0 0 0-21.963035-41.171862L403.244138 574.146207l9.321931-11.723035a59.533241 59.533241 0 0 0 13.206069-37.287724 60.239448 60.239448 0 0 0-19.915035-44.561655l-11.087448-10.381241 11.22869-10.381242a59.603862 59.603862 0 0 0 2.754207-86.298482l-10.028138-10.451862L409.6 353.103448a49.081379 49.081379 0 0 0 9.675034-61.722482l-6.638344-11.087449 10.451862-7.556414A34.251034 34.251034 0 0 0 437.848276 245.124414a36.934621 36.934621 0 0 0-38.558897-35.310345z"
      fill="#e1ceb4"
    />
    <path
      d="M568.28469 703.947034c-46.397793 0-84.109241-35.87531-84.109242-80.013241a78.671448 78.671448 0 0 1 23.304828-55.296A87.569655 87.569655 0 0 1 515.531034 470.192552a87.428414 87.428414 0 0 1-2.824827-105.931035 76.83531 76.83531 0 0 1-16.525241-47.739586 78.106483 78.106483 0 0 1 5.225931-28.742621 61.581241 61.581241 0 0 1-17.231449-42.372413 66.665931 66.665931 0 0 1 133.190621 0A79.518897 79.518897 0 0 1 663.834483 316.45131a76.340966 76.340966 0 0 1-7.062069 32.344276 88.770207 88.770207 0 0 1 30.437517 66.52469 87.145931 87.145931 0 0 1-19.350069 54.872276 87.499034 87.499034 0 0 1 19.350069 54.942896 89.547034 89.547034 0 0 1-39.265103 73.516138 76.976552 76.976552 0 0 1 4.307862 25.282207c0.070621 44.137931-37.85269 80.013241-83.968 80.013241z m-17.513931-494.344827a36.934621 36.934621 0 0 0-38.347035 35.310345 34.180414 34.180414 0 0 0 14.759724 27.753931l10.451862 7.556414-6.638344 11.087448a48.869517 48.869517 0 0 0-7.062069 24.929103A49.434483 49.434483 0 0 0 540.672 353.103448l10.663724 9.816276-10.028138 10.451862A59.603862 59.603862 0 0 0 543.77931 459.81131l11.22869 10.381242L543.77931 480.573793a60.239448 60.239448 0 0 0-19.915034 44.561655 59.109517 59.109517 0 0 0 13.206069 37.287724l9.321931 11.723035-12.217379 8.615724a50.281931 50.281931 0 0 0-22.033656 41.171862c0 28.248276 25.070345 51.764966 55.860966 51.764966s55.790345-23.234207 55.790345-51.764966a47.880828 47.880828 0 0 0-6.355862-24.011034l-7.062069-12.923587 13.276689-6.638344a62.358069 62.358069 0 0 0 35.310345-55.22538 60.239448 60.239448 0 0 0-19.915034-44.561655l-11.22869-10.381241 11.22869-10.381242a60.168828 60.168828 0 0 0 19.915034-44.491034 61.722483 61.722483 0 0 0-28.248276-51.129379l-12.005517-7.980138 8.192-11.793656a48.798897 48.798897 0 0 0 8.827586-28.248275 52.25931 52.25931 0 0 0-37.640827-48.940138l-11.934897-3.531035 2.330483-12.358621a30.437517 30.437517 0 0 0 0.635586-6.21462 36.934621 36.934621 0 0 0-38.276414-35.310345z"
      fill="#e1ceb4"
    />
  </g>
</svg>